<?xml version="1.0" encoding="UTF-8"?>
<svg width="32" height="32" viewBox="0 0 32 32" xmlns="http://www.w3.org/2000/svg">
  <!-- Epic Fish - Pixel Art Style -->
  <g transform="translate(0,0)">
    <!-- Glowing Effect -->
    <path d="M4 16 L12 8 L26 8 L30 16 L26 24 L12 24 L4 16" fill="#b39ddb" opacity="0.3">
      <animate attributeName="opacity" values="0.3;0.6;0.3" dur="1s" repeatCount="indefinite"/>
    </path>
    <!-- Fish Body -->
    <path d="M6 16 L12 10 L24 10 L28 16 L24 22 L12 22 L6 16" fill="#9575cd"/>
    <!-- Tail -->
    <path d="M24 10 L32 4 L34 16 L32 28 L24 22" fill="#9575cd"/>
    <!-- Eye with Glow -->
    <circle cx="14" cy="16" r="3" fill="#7e57c2"/>
    <circle cx="14" cy="16" r="1" fill="#ffffff"/>
    <!-- Decorative Patterns -->
    <path d="M16 12 L18 10 L20 12 L22 10" fill="#7e57c2"/>
    <path d="M16 20 L18 22 L20 20 L22 22" fill="#7e57c2"/>
    <!-- Ornate Fins -->
    <path d="M16 10 L20 2 L24 6 L26 10" fill="#9575cd"/>
    <path d="M16 22 L20 30 L24 26 L26 22" fill="#9575cd"/>
    <!-- Animation keyframes for swimming motion with slight y-axis movement -->
    <animateTransform attributeName="transform" attributeType="XML"
      type="translate" from="0,0" to="2,1"
      dur="0.7s" repeatCount="indefinite" begin="0s" />
  </g>
</svg>